<svg xmlns="http://www.w3.org/2000/svg"  viewBox="0 0 50 50" width="50px" height="50px"><path d="M 12 1 C 10.839844 1 10 1.839844 10 3 L 10 47 C 10 48.160156 10.839844 49 12 49 L 38 49 C 39.160156 49 40 48.160156 40 47 L 40 3 C 40 1.839844 39.160156 1 38 1 Z M 15 6 L 35 6 L 35 28 L 15 28 Z M 25 30 C 26.105469 30 27 30.894531 27 32 C 27 33.105469 26.105469 34 25 34 C 23.894531 34 23 33.105469 23 32 C 23 30.894531 23.894531 30 25 30 Z M 18 36 L 20 36 L 20 39 L 15 39 C 15 37.300781 16.300781 36 18 36 Z M 22 36 L 28 36 L 28 39 L 22 39 Z M 30 36 L 32 36 C 33.699219 36 35 37.300781 35 39 L 30 39 Z M 15 41 L 20 41 L 20 44 L 18 44 C 16.300781 44 15 42.699219 15 41 Z M 22 41 L 28 41 L 28 44 L 22 44 Z M 30 41 L 35 41 C 35 42.699219 33.699219 44 32 44 L 30 44 Z"/></svg>