<svg xmlns="http://www.w3.org/2000/svg" viewBox="0 0 285 89"><path d="M30.63 3.52h223.74a7 7 0 0 1 7 7v69H23.62v-69a7 7 0 0 1 7-7z" style="fill:#373435"/><path d="M23.62 79.84h237.76a6.13 6.13 0 0 1-6.14 6.16H29.76a6.13 6.13 0 0 1-6.13-6.13zM136.1 10.33c-27.94 0-50.6 7.9-50.6 17.68s22.66 17.68 50.6 17.68 50.57-7.9 50.57-17.68S164 10.33 136.1 10.33zm-.67 31.18c-24.6 0-44.52-6.6-44.52-14.8s19.94-14.8 44.53-14.8S180 18.55 180 26.7s-20 14.8-44.57 14.8zM150.6 9.05c-1.28-.05-2.6-.12-3.87-.05 23.12 2.55 42.1 9.73 42.1 19.08 0 10.82-26.6 18.88-54.32 19.48a129.88 129.88 0 0 1-29.9-2.77l4.86 4.65a194.26 194.26 0 0 0 38 1c27.25-2 54.3-9.67 54.3-20.5s-24.87-19.1-51.16-20.9zm-40.17 13.01h12c0 1.4.43 2.68-.13 3.3s-2.2.65-3.6.55a47.27 47.27 0 0 0-9 .32c4.5 5.14 10.73 5.88 16.76 7.1-2.66 5.45-3.9 6.25-9.56 5a138.4 138.4 0 0 1-14.4-4.12 15 15 0 0 1-5.14-3.5c-2.45-2.34-2.57-5.53 0-7.72a24.25 24.25 0 0 1 8-4.76 85.72 85.72 0 0 1 16.47-3.66A16.77 16.77 0 0 1 131 16.8c6.58 3.65 12.9 7.8 19.18 11.94 4 2.63 7.66 2.22 11.36-.33 3.25-2.23 3.54-5.43 0-7.17-4.23-2.08-9-3.2-13.53-4.53-1.85-.55-3.87-.55-6.1-1.56 1-.43 2-1.37 2.88-1.23 7.3 1.28 14.6 2.57 21.8 4.24a21 21 0 0 1 6.95 3.5c4.55 3.18 4.44 7.04 0 10.4a6.6 6.6 0 0 1-.78.53c-7.1 3.9-14.55 6.66-22.75 5.42a21.15 21.15 0 0 1-8.78-3.64c-6-4.25-11.54-9-17.27-13.58-4.76-3.78-8.23-3.56-13.52 1.28z" style="fill:#ffcc29"/><path d="M244.12 70.47c-.3 1.25-.57 2.42-.87 3.66H227.6a8.34 8.34 0 0 1-3.45-.65 4.54 4.54 0 0 1-2.75-5.54c.4-1.63.77-3.26 1.16-4.9a7.44 7.44 0 0 1 5.26-5.43 11 11 0 0 1 3.42-.6c5.28-.05 10.57 0 15.86 0h.4l-.93 3.65h-15.7a3.73 3.73 0 0 0-2.94 1.23 2.6 2.6 0 0 0-.7 1.67h14.1c-.3 1.27-.6 2.46-.88 3.7h-13.57c-.44 0-.64.1-.74.57a2 2 0 0 0 2 2.64h15.96zm-75.58-.03c-.28 1.17-.54 2.28-.82 3.4 0 .1-.2.2-.34.25a1.32 1.32 0 0 1-.4 0h-14.42a10.1 10.1 0 0 1-3.77-.58 4.57 4.57 0 0 1-3-5.55c.37-1.73.8-3.46 1.23-5.18a7.37 7.37 0 0 1 4.55-5 10.2 10.2 0 0 1 4.23-.85h16.08c-.24 1-.5 2-.7 2.9-.1.57-.33.74-.9.73H155.6a6 6 0 0 0-2.1.38 3 3 0 0 0-1.9 2.52h14.13c-.18.77-.35 1.5-.5 2.2a8.27 8.27 0 0 0-.26 1.08c0 .4-.25.45-.6.45h-13.13a.6.6 0 0 0-.7.56 2 2 0 0 0 1.84 2.62 4.68 4.68 0 0 0 .84.05h15.3zm2.83 3.66c.18-.78.33-1.47.5-2.16.12-.48.1-1.15.42-1.38s1-.1 1.48-.1h13.28a2.16 2.16 0 0 0 2.4-2c.15-.8-.18-1.23-1-1.25s-1.77 0-2.65 0h-7.37a8.38 8.38 0 0 1-2.12-.26 4 4 0 0 1-2.8-5.4 7 7 0 0 1 5.5-4.45 7.55 7.55 0 0 1 1.58-.15h15.62c-.27 1.18-.54 2.32-.84 3.46 0 .1-.3.2-.44.2h-14.08a7.63 7.63 0 0 0-1 0 1.86 1.86 0 0 0-1.7 1.93.78.78 0 0 0 .74.86 5.23 5.23 0 0 0 .8 0h9.52a8.42 8.42 0 0 1 2.5.37 3.9 3.9 0 0 1 2.57 4.86A7.23 7.23 0 0 1 188.1 74c-.55 0-1.1.07-1.65.08h-15.08zM118 74.06c.25-1.06.5-2.1.75-3.12q1.64-6.7 3.26-13.4c.12-.44.26-.6.76-.6h14.9a8.68 8.68 0 0 1 3.84.74 4.43 4.43 0 0 1 2.65 5.47c-.17.78-.36 1.55-.55 2.33-.15.6-.33 1.22-.43 1.84a7.84 7.84 0 0 1-5.1 6 9.67 9.67 0 0 1-3.92.77h-15.7a4.2 4.2 0 0 1-.45-.04zm5.5-3.7a.85.85 0 0 0 .18.07h11.17a3.62 3.62 0 0 0 3.5-2.73c.36-1.42.7-2.84 1-4.26a2 2 0 0 0-2.14-2.77c-3.62 0-7.24 0-10.86-.08a.5.5 0 0 0-.57.44c-.42 1.76-.86 3.5-1.3 5.27-.28 1.35-.6 2.7-.94 4.07zM76.28 74h-6a6 6 0 0 1-3.68-1.37A4.3 4.3 0 0 1 65 68.2c.4-1.83.84-3.66 1.3-5.47a7.06 7.06 0 0 1 3.9-4.54 10.48 10.48 0 0 1 4.92-1.15h10a8 8 0 0 1 3.76.82 4.3 4.3 0 0 1 2.4 5.13c-.4 1.73-.8 3.46-1.23 5.18a7.7 7.7 0 0 1-4.44 5 10.1 10.1 0 0 1-4.48 1h-4.84zm.6-3.6h4.85a3.82 3.82 0 0 0 3.8-3c.23-1.34.64-2.67 1-4a2 2 0 0 0-2.08-2.7H74.37a3.67 3.67 0 0 0-3.47 2.67q-.6 2.3-1.1 4.65a1.85 1.85 0 0 0 1.32 2.3 3.9 3.9 0 0 0 1.13.14c1.5 0 3.08-.02 4.64-.02zm32.8-1.5 5.22 5.1-.07.14h-5.01a1.07 1.07 0 0 1-.66-.25q-4.32-4.18-8.62-8.4l-.22-.25h9.11a3.93 3.93 0 0 0 2.88-1A2 2 0 0 0 113 62a2.1 2.1 0 0 0-2.1-1.3H99.77c-.43 0-.57.13-.66.52l-3 12.3c-.1.47-.3.66-.8.63h-3.9c.3-1.3.6-2.52.9-3.74q1.6-6.44 3.16-12.9c.1-.38.2-.52.6-.52h15.48a8.07 8.07 0 0 1 3.8.85 4.57 4.57 0 0 1 2.12 6.34 8.54 8.54 0 0 1-5.76 4.4c-.64.13-1.3.2-2.02.33zm-53.15 1.58c.4-1.6.8-3.12 1.22-4.66l2.2-8.44c.05-.23.07-.45.4-.44h4.3a.93.93 0 0 1 .2.06c0 .24-.1.48-.15.7q-2 7.95-3.88 15.9c-.1.4-.26.52-.67.5-1.44-.08-2.9 0-4.33-.2a5.6 5.6 0 0 1-4.25-3.28q-2.2-4.53-4.37-9.07a1.6 1.6 0 0 0-1.6-1c-.25 1-.5 1.94-.74 2.92q-1.26 5.1-2.5 10.2c-.07.35-.2.46-.56.46h-4.29c.26-1 .5-2.06.73-3.08 1.05-4.5 2.1-9 3.14-13.48.1-.45.28-.58.73-.57 1.33 0 2.67 0 4 .1a6.15 6.15 0 0 1 5.06 3.8l4.1 8.64a1.57 1.57 0 0 0 1.27.94zm146.95 3.58 3.2-13.42h-8.5c0-.24.07-.42.1-.6.2-.76.4-1.53.6-2.3s.18-.8 1-.8h21.9c-.23 1-.42 1.88-.66 2.77-.3 1.1 0 .9-1.15.9h-8a.54.54 0 0 0-.63.5c-1 4.2-2 8.37-3 12.56-.08.32-.2.45-.56.45h-3.84a4.64 4.64 0 0 1-.46-.04z" style="fill:#fff"/></svg>