<svg xmlns="http://www.w3.org/2000/svg" xmlns:xlink="http://www.w3.org/1999/xlink" id="Camada_1" viewBox="0 0 400 125"><defs><linearGradient id="linear-gradient" x1="200" x2="200" y1="62.5" y2="120.17" gradientUnits="userSpaceOnUse"><stop offset=".64" stop-color="#f8d300"/><stop offset=".74" stop-color="#f8d302"/><stop offset=".8" stop-color="#fad60b"/><stop offset=".85" stop-color="#fddb19"/><stop offset=".88" stop-color="#ffdf24"/></linearGradient><linearGradient id="linear-gradient-2" x1="200" x2="200" y1="1.92" y2="25.74" gradientUnits="userSpaceOnUse"><stop offset=".25" stop-color="#fadb00"/><stop offset=".32" stop-color="#f9da00" stop-opacity=".99"/><stop offset=".38" stop-color="#f9da00" stop-opacity=".94"/><stop offset=".44" stop-color="#f9d900" stop-opacity=".87"/><stop offset=".5" stop-color="#f9d800" stop-opacity=".76"/><stop offset=".55" stop-color="#f8d600" stop-opacity=".63"/><stop offset=".61" stop-color="#f8d400" stop-opacity=".46"/><stop offset=".66" stop-color="#f8d300" stop-opacity=".3"/></linearGradient><linearGradient id="linear-gradient-3" x1="550.3" x2="466.65" y1="-1542.09" y2="-1542.09" gradientTransform="translate(-452.06 1602.14)" gradientUnits="userSpaceOnUse"><stop offset="0" stop-color="#fff"/><stop offset=".07" stop-color="#c7c7c7"/><stop offset=".18" stop-color="#727272"/><stop offset=".28" stop-color="#343434"/><stop offset=".35" stop-color="#0e0e0e"/><stop offset=".38"/></linearGradient><linearGradient id="linear-gradient-4" x1=".95" x2="18.02" y1="62.5" y2="62.5" gradientUnits="userSpaceOnUse"><stop offset=".12" stop-color="#d6b400" stop-opacity=".8"/><stop offset=".4" stop-color="#e5c200" stop-opacity=".57"/><stop offset=".67" stop-color="#f2ce00" stop-opacity=".38"/><stop offset=".82" stop-color="#f8d300" stop-opacity=".3"/></linearGradient><linearGradient xlink:href="#linear-gradient-3" id="linear-gradient-5" x1="378.81" x2="295.16" y1="62.35" y2="62.35"/><linearGradient id="linear-gradient-6" x1="398.75" x2="360.66" y1="62.5" y2="62.5" gradientUnits="userSpaceOnUse"><stop offset=".06" stop-color="#ffde1d"/><stop offset=".28" stop-color="#fcd912" stop-opacity=".74"/><stop offset=".5" stop-color="#fad608" stop-opacity=".5"/><stop offset=".66" stop-color="#f8d302" stop-opacity=".36"/><stop offset=".75" stop-color="#f8d300" stop-opacity=".3"/></linearGradient><linearGradient id="linear-gradient-7" x1="391.7" x2="391.7" y1="29.22" y2="7.83" gradientUnits="userSpaceOnUse"><stop offset=".07" stop-color="#fd0"/><stop offset=".07" stop-color="#fedd02"/><stop offset=".13" stop-color="#fee336"/><stop offset=".18" stop-color="#fee862"/><stop offset=".24" stop-color="#fded87"/><stop offset=".29" stop-color="#fdf0a3"/><stop offset=".35" stop-color="#fdf3b7"/><stop offset=".41" stop-color="#fdf4c3"/><stop offset=".46" stop-color="#fdf5c8"/></linearGradient><clipPath id="clippath"><path d="M25.53 54.55v15.82h9.06L46.7 91.3h18.16l12.19-21.18L89.3 91.3h18.16V75.74h-9.12L86.2 54.55H68.04L55.73 75.67 43.6 54.55H25.53z" class="cls-1"/></clipPath><clipPath id="clippath-1"><path d="M74.14 33.7H55.96l9.09 15.66h18.18L74.14 33.7z" class="cls-1"/></clipPath><mask id="mask" width="127.33" height="129.32" x="-2.5" y="-4.6" maskUnits="userSpaceOnUse"><path d="M-2.5-4.6h126.2v129.32H-2.5z" style="fill:url(#linear-gradient-3)" transform="rotate(180 60.6 60.055)"/></mask><mask id="mask-1" width="127.11" height="129.32" x="277.17" y="-2.31" maskUnits="userSpaceOnUse"><path d="M278.08-2.31h126.2v129.32h-126.2z" style="fill:url(#linear-gradient-5)"/></mask><style>.cls-1{fill:none}.cls-6{fill:#3e3c38}</style></defs><rect width="400" height="124.43" y=".28" rx="19.23" ry="19.23" style="fill:url(#linear-gradient)"/><path d="M400 19.52v11.89H0V19.52C0 8.9 8.61.29 19.24.29h361.53c10.62 0 19.24 8.61 19.24 19.23Z" style="fill:url(#linear-gradient-2)"/><g style="mask:url(#mask)"><path d="M124.84.29v124.43H19.24C8.61 124.72 0 116.1 0 105.48V19.52C0 8.9 8.61.29 19.24.29h105.6Z" style="fill:url(#linear-gradient-4)"/></g><g style="mask:url(#mask-1)"><path d="M400 19.52v85.96c0 10.63-8.62 19.24-19.24 19.24h-103.6V.29h103.6C391.38.29 400 8.9 400 19.52Z" style="fill:url(#linear-gradient-6)"/></g><path d="M391.19 5.05h-3.77c-2.68-1.13-5.73-1.77-8.98-1.77H20.68c-3.25 0-6.31.64-8.98 1.77H7.93c3.38-2.4 7.85-3.86 12.76-3.86h357.75c4.91 0 9.38 1.46 12.76 3.86Z" style="fill:#fff3c0"/><path d="M386.44 9.6s1.69-.59 4.37-.57c2.54.02 4.11 1.33 4.11 1.33s2.03 2.7 2.03 6.58v15.45h-7.85V20.11c0-6.33-2.66-10.51-2.66-10.51Z" style="fill:url(#linear-gradient-7)"/><path d="M121.98 68.84h7.14V91.3h-7.14V68.84Zm8.69 0h26.99v5.73h-9.92V91.3h-7.14V74.57h-9.93v-5.73Zm49.72 22.46-1.91-3.8h-14.75l-1.91 3.8h-7.76l11.82-22.46h10.55l11.66 22.46h-7.71Zm-4.29-8.72-4.3-8.5h-1.35l-4.3 8.5h9.95Zm13.01 8.72V68.84h15.28c3.02 0 4.97.06 5.84.18 2.4.32 3.99 1.18 4.77 2.58.58 1.06.88 2.93.88 5.64s-.32 4.72-.96 5.84c-.61 1.05-1.62 1.78-3.02 2.18-1.03.3-2.42.47-4.16.51-.79.01-1.88.02-3.28.02h-8.54v5.5h-6.8Zm6.8-11.11h8.49c1.38-.01 2.22-.03 2.5-.05 1-.07 1.63-.39 1.91-.97.17-.36.26-1.01.26-1.94 0-.88-.1-1.49-.3-1.84-.29-.53-.91-.82-1.85-.87-.29-.02-1.14-.04-2.53-.07h-8.49v5.74Zm22.21-11.35h24.7v5.28h-18v3.25h17.09v4.94h-17.09v3.6h18.13v5.4h-24.83V68.85Zm26.95 0h12.32l6.63 14.58 6.63-14.58h12.25V91.3h-6.7l.16-16.81h-1.11l-8.41 16.81h-5.64l-8.41-16.81h-1.19l.16 16.81h-6.7V68.84Zm40.95 0h7.14V91.3h-7.14V68.84Zm10.26 22.46V68.84h16.42c3.88.01 6.16.05 6.86.11.8.08 1.52.31 2.17.7.65.39 1.15.89 1.51 1.49.37.65.59 1.32.67 2.02.09.83.15 1.82.15 2.98 0 1.83-.12 3.11-.37 3.83-.38 1.07-1.1 1.82-2.16 2.23-.36.15-.9.27-1.62.38 1.43.11 2.45.52 3.07 1.24.27.31.46.68.58 1.09.11.42.19 1.02.23 1.8.01.41.02 1.24.02 2.49v2.09h-6.7v-1.2c0-1.34-.06-2.3-.18-2.88-.17-.83-.62-1.32-1.33-1.48-.47-.1-1.45-.15-2.95-.15h-9.57v5.71h-6.8Zm6.8-11.32h9.56c1.43-.02 2.27-.05 2.53-.07.96-.05 1.56-.35 1.81-.89.17-.37.26-1 .26-1.89 0-.76-.08-1.34-.23-1.71-.23-.55-.78-.86-1.65-.92-.3-.02-1.22-.04-2.74-.05h-9.54v5.53Zm23.3-11.14h7.14V91.3h-7.14V68.84Zm10.26 0h12.32l6.63 14.58 6.64-14.58h12.25V91.3h-6.7l.16-16.81h-1.11l-8.41 16.81h-5.64l-8.41-16.81h-1.19l.16 16.81h-6.7V68.84Z" class="cls-6"/><path d="M82.1 30.47h-1.77l35.19 60.83h1.77L82.1 30.47zm-3.28 0h-1.77l35.19 60.83h1.77L78.82 30.47zm-3.28 0h-1.77l35.2 60.83h1.77l-35.2-60.83zm-3.27 0h-1.78l35.2 60.83h1.77L72.27 30.47zm-3.28 0h-1.77l35.19 60.83h1.77L68.99 30.47zm-3.28 0h-1.77L99.13 91.3h1.78l-35.2-60.83zm-3.28 0h-1.77l35.2 60.83h1.77l-35.2-60.83zm-3.27 0h-1.77L92.58 91.3h1.77L59.16 30.47zm-3.28 0h-1.77L89.3 91.3h1.77L55.88 30.47zm-3.28 0h-1.77l35.2 60.83h1.77L52.6 30.47zm-3.27 0h-1.78l35.2 60.83h1.77L49.33 30.47zm-3.28 0h-1.77L79.47 91.3h1.77L46.05 30.47zm-3.28 0H41L76.2 91.3h1.77l-35.2-60.83zm-3.27 0h-1.78l35.2 60.83h1.77L39.5 30.47zm-3.28 0h-1.77L69.64 91.3h1.77L36.22 30.47zm-3.28 0h-1.77L66.36 91.3h1.78l-35.2-60.83zm-3.28 0h-1.77l35.2 60.83h1.77l-35.2-60.83zm-3.27 0h-1.77L59.81 91.3h1.77L26.39 30.47zm-3.28 0h-1.77L56.53 91.3h1.77L23.11 30.47zm-3.28 0h-1.77l35.2 60.83h1.77l-35.2-60.83zm-3.27 0h-1.78l35.2 60.83h1.77L16.56 30.47zm-3.28 0h-1.77L46.7 91.3h1.77L13.28 30.47zm-3.28 0H8.23l35.2 60.83h1.77L10 30.47zm-3.27 0H4.95l35.2 60.83h1.77L6.73 30.47zm-3.28 0H1.68L36.87 91.3h1.77L3.45 30.47z" class="cls-6" style="clip-path:url(#clippath)"/><path d="M72.27 30.47h-1.78l35.2 60.83h1.77L72.27 30.47zm-3.28 0h-1.77l35.19 60.83h1.77L68.99 30.47zm-3.28 0h-1.77L99.13 91.3h1.78l-35.2-60.83zm-3.28 0h-1.77l35.2 60.83h1.77l-35.2-60.83zm-3.27 0h-1.77L92.58 91.3h1.77L59.16 30.47zm-3.28 0h-1.77L89.3 91.3h1.77L55.88 30.47z" class="cls-6" style="clip-path:url(#clippath-1)"/></svg>