<svg xmlns="http://www.w3.org/2000/svg" data-name="Camada 1" viewBox="0 0 400 125"><path d="M398.7 106.91q-5.4-13.81-10.79-27.64-4.91-12.57-9.82-25.15c-.12-.29-.23-.59-.36-.87a1.63 1.63 0 0 0-1.49-1h-.68a21.52 21.52 0 0 0-2.66.22 15.23 15.23 0 0 0-7.18 3.13 17.85 17.85 0 0 0-4.34 5.29 36.38 36.38 0 0 0-2.07 4.54q-7.8 19.89-15.63 39.77c-.4 1-.8 2-1.18 3-.21.55-.15.65.41 1a1.64 1.64 0 0 0 .93.09h14.25c1.14 0 1.58-.83 1.85-1.75.51-1.79 1.22-3.52 1.67-5.33a1.24 1.24 0 0 1 1.41-1h15a1.26 1.26 0 0 1 1.42 1c.52 1.91 1.22 3.77 1.77 5.66a1.7 1.7 0 0 0 1.7 1.43h15.45a.71.71 0 0 0 .77-.43 11.1 11.1 0 0 0-.43-1.96ZM364 93.61 371.07 71l5.26 17.46S367.93 86 364 93.61Zm-129.6 15.7h-.33a1.28 1.28 0 0 1-.76-1.32V53.28a1 1 0 0 1 1-1h.18a26.47 26.47 0 0 1 6.75.68 17.06 17.06 0 0 1 7 3.82 46.37 46.37 0 0 1 5.57 6q8 10.07 16.1 20.1c.16.21.24.53.6.53a1.45 1.45 0 0 0 .07-.74V53.33a1 1 0 0 1 1.09-1.09h12.5a6.78 6.78 0 0 1 .78 0 1 1 0 0 1 1 .93 5.09 5.09 0 0 1 0 .78v53.98a1.23 1.23 0 0 1-.86 1.34h-1.72a2.76 2.76 0 0 0-.86 0L280 109a16.23 16.23 0 0 1-8-3.46 34 34 0 0 1-4.9-4.84c-1.81-2.15-3.57-4.34-5.35-6.52l-12.47-15.26c-.14-.17-.23-.39-.48-.49-.17.16-.1.37-.1.55v28.92a1.26 1.26 0 0 1-1 1.41H235c-.2-.03-.4-.01-.6 0Zm104.89-.01H324.6a1.24 1.24 0 0 1-1-1.36V87.17c0-.75 0-.76-.76-.76h-17a.27.27 0 0 0-.26.28v21.17a1.25 1.25 0 0 1-1 1.4H290a1.21 1.21 0 0 1-.86-1.33V54.05a6.54 6.54 0 0 1 0-.77 1 1 0 0 1 1.06-1 6.52 6.52 0 0 1 .77 0h13.69a1 1 0 0 1 .9.8 2.54 2.54 0 0 1 .06.68q0 11.28-.05 22.55c0 1 0 1.95-.05 2.93a.18.18 0 0 0 .08.13.2.2 0 0 0 .15 0c.15-.17.29-.35.43-.53a14 14 0 0 1 1.87-1.9 9.93 9.93 0 0 1 4.69-2 24 24 0 0 1 3.77-.37l6.21-.1h.43c.45 0 .48 0 .49-.51V54.28a4.62 4.62 0 0 1 .08-1.11 1 1 0 0 1 .82-.78 4.9 4.9 0 0 1 .77-.05h13.28a6.81 6.81 0 0 1 .78.05.88.88 0 0 1 .79.69 3.83 3.83 0 0 1 .1.59v54.41a1.25 1.25 0 0 1-.97 1.22Zm-177.29.01h-14.86a1.21 1.21 0 0 1-.86-1.33V68.56c0-1.63 0-3.27.19-4.9a21.6 21.6 0 0 1 .94-5c.13-.38.27-.76.42-1.13a8 8 0 0 1 5.75-4.86 13.12 13.12 0 0 1 2.72-.39c.72 0 1.44-.05 2.16 0 3.33 0 6.67-.1 10 .07A33.49 33.49 0 0 1 180.65 55a21.69 21.69 0 0 1 5.37 3.4 16.12 16.12 0 0 1 5.32 9 20.78 20.78 0 0 1-.12 9.38A16.72 16.72 0 0 1 185.3 86a24 24 0 0 1-8.63 4.35 37.11 37.11 0 0 1-6.94 1.23c-1.12.1-2.24.14-3.36.16h-.6a.27.27 0 0 1-.28-.27v-7.6a7.78 7.78 0 0 1 .15-1.53 3.29 3.29 0 0 1 1.28-2.08 6.32 6.32 0 0 1 2-.94 9.56 9.56 0 0 0 1.85-.68 6.85 6.85 0 0 0 4-6.07 9.46 9.46 0 0 0-.11-2.32 6.7 6.7 0 0 0-3.41-4.72 10.29 10.29 0 0 0-3.58-1.19 25.7 25.7 0 0 0-4.3-.17c-.32 0-.38.06-.39.42s0 .51 0 .77v42.54a1.26 1.26 0 0 1-.98 1.41Zm67.92-.03h-34.69a1.23 1.23 0 0 1-1-1.4V65a15.93 15.93 0 0 1 .65-4.75 9.93 9.93 0 0 1 5-6.06 16.3 16.3 0 0 1 4.56-1.51 27.65 27.65 0 0 1 5.06-.42h19.6a6.51 6.51 0 0 1 .77 0 1 1 0 0 1 .91.89 4.1 4.1 0 0 1 0 .61v9.2a1.09 1.09 0 0 1-1.06 1.14 6.24 6.24 0 0 1-.86 0h-17.31c-1.26 0-1.11-.13-1.11 1.09v8.52c0 .43.06.48.51.48h4.74c1.95 0 3.91 0 5.86.1a11.28 11.28 0 0 1 2.7.5l.49.17a4.58 4.58 0 0 1 3.09 4.43v5.24a2 2 0 0 1-.11.76 1 1 0 0 1-.67.62 3.74 3.74 0 0 1-1.11.1h-14.3c-1.38 0-1.2-.16-1.2 1.17v9c0 1.29-.17 1.12 1.16 1.12h17.33a8.29 8.29 0 0 1 .86 0 1 1 0 0 1 1 1v9.6a1.17 1.17 0 0 1-.87 1.28Z" style="fill:#606062"/><path d="M143.63 62.66c.06-.39.1-.78.16-1.18a.12.12 0 0 0 0-.09c-.06-.09-.06.1-.08 0-.21.17-.43.3-.62.48l-5.57 4.87c-2.35 2.07-4.71 4.12-7.07 6.18-.73.66-.51.73-1.35 0-1.17-1-2.31-2.06-3.46-3.1-2.27-2-4.54-4.06-6.8-6.09l-6-5.42c-.68-.61-1.37-1.23-2.06-1.83-.9-.76-.91-.75-.91-2V18.77a6.64 6.64 0 0 0-.14-1.54 1.75 1.75 0 0 0-1.21-1.44c-.33-.16-.7 0-1-.07h-.16a2.65 2.65 0 0 0-1.58.63c-.94.72-1.8 1.52-2.68 2.3-2.55 2.23-5.07 4.47-7.63 6.69s-5.3 4.67-8 7c-2.23 1.92-4.42 3.9-6.66 5.83a.69.69 0 0 1-1.09 0c-4.13-3.65-8.3-7.26-12.43-10.9s-8-7-12-10.56a3.28 3.28 0 0 0-1.88-1h-.11c-.16 0-.32 0-.46-.09h-.34c-.13.12-.3.09-.46.09h-.18a1.43 1.43 0 0 0-1.08 1 4.27 4.27 0 0 0-.24 1.77v35.56a2.74 2.74 0 0 1-1 2.32c-1.3 1.09-2.53 2.25-3.8 3.37-2.53 2.25-5 4.53-7.56 6.78-2.33 2.06-4.62 4.14-6.93 6.21a.63.63 0 0 1-1 0c-.45-.49-1-.87-1.48-1.31q-5.24-4.61-10.49-9.19C14.16 58.65 10.11 55.08 6 51.55a8.38 8.38 0 0 0-2.79-2C1.93 49.13 1 49.67.9 51a.44.44 0 0 0 0 .13v56.37c.2 1.25.65 1.7 1.87 1.85h140.48c.28 0 .45-.11.31-.43a3.86 3.86 0 0 1-.16-1.27v-6.54c0-1 0-1-.92-1H110.8c-1.15 0-1.06.11-1.06-1.06V69.49c0-.07.11-.16.2-.1a4.31 4.31 0 0 1 .56.39l1.55 1.36c2.35 2.07 4.71 4.13 7 6.2 2.66 2.33 5.3 4.67 8 7a14.77 14.77 0 0 0 1.74 1.42 1.5 1.5 0 0 0 1.77 0 10 10 0 0 0 1.18-.87l5.61-4.89c1.83-1.61 3.66-3.22 5.51-4.81a1.36 1.36 0 0 0 .51-1.12v-6.71c0-1.38.16-2.74.19-4.12-.02-.18.05-.37.07-.58ZM10.57 99.29v-28a2.52 2.52 0 0 1 .14-1 .56.56 0 0 1 .69-.34 2.31 2.31 0 0 1 .88.52c2 1.76 4 3.53 6 5.28L26 82.5l3.06 2.66c.21.19.45.35.68.52a1.57 1.57 0 0 0 2 0 11.26 11.26 0 0 0 1.09-.84c2.1-1.84 4.17-3.71 6.32-5.57 2.63-2.31 5.28-4.61 7.9-6.92 1.06-.92 2.11-1.85 3.17-2.79l.38-.31a1.25 1.25 0 0 1 .12.75v29.26c0 .93 0 .9-.89.9H11.49c-.92.01-.92.06-.92-.87Zm89.63-61.37v37.44c-.11 8 0 16-.08 23.93 0 .91 0 .86-.93.86H60.88c-.44 0-.49-.06-.5-.51V36.92a1 1 0 0 1 .32-.69.76.76 0 0 1 .94-.17 3.12 3.12 0 0 1 .56.39q1.77 1.52 3.52 3l5.38 4.7c1.64 1.44 3.26 2.89 4.91 4.32.71.63 1.44 1.24 2.17 1.84a4.83 4.83 0 0 0 1.33.79 2 2 0 0 0 1.66-.06A7.35 7.35 0 0 0 82.8 50c1.31-1.12 2.61-2.26 3.9-3.39l5.45-4.77 4.78-4.2c.48-.42.94-.84 1.43-1.25a1.05 1.05 0 0 1 1.16-.39 1.2 1.2 0 0 1 .65 1.05 6.13 6.13 0 0 1 .03.87Z" style="fill:#61acd7"/></svg>